<?xml version="1.0" encoding="UTF-8"?>
<svg width="200px" height="172px" viewBox="0 0 200 172" version="1.1" xmlns="http://www.w3.org/2000/svg" xmlns:xlink="http://www.w3.org/1999/xlink">
    <defs>
        <filter id="filter-1">
            <feGaussianBlur stdDeviation="3" in="SourceGraphic"></feGaussianBlur>
        </filter>
    </defs>
    <g id="Empty-Order" stroke="none" stroke-width="1" fill="none" fill-rule="evenodd">
        <ellipse id="shadow" fill="#E0E0E0" filter="url(#filter-1)" cx="100" cy="155" rx="60" ry="10"></ellipse>
        <g id="bag" transform="translate(52.000000, 10.000000)">
            <path d="M85.5,45 L85.5,121.5 C85.5,124.538 83.0376,127 80,127 L20,127 C16.9624,127 14.5,124.538 14.5,121.5 L14.5,45 L85.5,45 Z" id="body" fill="#FFFFFF" stroke="#CCCCCC" stroke-width="2"></path>
            <path d="M85.5,45 L85.5,52 C85.5,55.0376 83.0376,57.5 80,57.5 L20,57.5 C16.9624,57.5 14.5,55.0376 14.5,52 L14.5,45 L85.5,45 Z" id="top-band" fill="#F5F5F5"></path>
            <path d="M28.8182,45 C28.8182,28.9837 41.7881,16 57.7879,16 C73.7877,16 86.7576,28.9837 86.7576,45" id="handle" stroke="#CCCCCC" stroke-width="2" stroke-linecap="round"></path>
            <circle id="hole-1" fill="#F5F5F5" cx="35" cy="83" r="5"></circle>
            <circle id="hole-2" fill="#F5F5F5" cx="50" cy="83" r="5"></circle>
            <circle id="hole-3" fill="#F5F5F5" cx="65" cy="83" r="5"></circle>
        </g>
        <g id="receipt" transform="translate(100.000000, 44.000000)">
            <rect id="paper" fill="#FFFFFF" x="0" y="0" width="50" height="70" rx="2"></rect>
            <g id="lines" transform="translate(5.000000, 10.000000)" fill="#E0E0E0">
                <rect id="line-1" x="0" y="0" width="40" height="2" rx="1"></rect>
                <rect id="line-2" x="0" y="8" width="35" height="2" rx="1"></rect>
                <rect id="line-3" x="0" y="16" width="40" height="2" rx="1"></rect>
                <rect id="line-4" x="0" y="24" width="30" height="2" rx="1"></rect>
                <rect id="line-5" x="0" y="40" width="40" height="2" rx="1"></rect>
                <rect id="line-6" x="0" y="48" width="25" height="2" rx="1"></rect>
            </g>
        </g>
        <g id="x-mark" transform="translate(110.000000, 54.000000)" stroke="#FF8C00" stroke-linecap="round" stroke-width="3">
            <line x1="0" y1="0" x2="30" y2="30" id="line-1"></line>
            <line x1="30" y1="0" x2="0" y2="30" id="line-2"></line>
        </g>
    </g>
</svg>
